<svg width="1024" height="1024" viewBox="0 0 1024 1024" fill="none" xmlns="http://www.w3.org/2000/svg">
<rect width="1024" height="1024" rx="159" fill="#1C4074"/>
<path d="M423.737 766V384.182H560.953V766H423.737ZM492.345 344.409C473.784 344.409 457.875 338.277 444.617 326.014C431.36 313.751 424.731 299.002 424.731 281.767C424.731 264.532 431.36 249.783 444.617 237.52C457.875 225.257 473.784 219.125 492.345 219.125C511.071 219.125 526.98 225.257 540.072 237.52C553.329 249.783 559.958 264.532 559.958 281.767C559.958 299.002 553.329 313.751 540.072 326.014C526.98 338.277 511.071 344.409 492.345 344.409Z" fill="white"/>
</svg>
